
<svg width="1440" height="900" viewBox="0 0 1440 900" fill="none" xmlns="http://www.w3.org/2000/svg">
<g clip-path="url(#clip0_128_666)">
<rect width="1600" height="900" fill="#1D1D1D"/>
<mask id="mask0_128_666" style="mask-type:luminance" maskUnits="userSpaceOnUse" x="0" y="0" width="1600" height="900">
<path d="M1600 0H0V900H1600V0Z" fill="white"/>
</mask>
<g mask="url(#mask0_128_666)">
<path d="M1600 0H0V900H1600V0Z" fill="#1D1D1D"/>
<mask id="mask1_128_666" style="mask-type:luminance" maskUnits="userSpaceOnUse" x="-1" y="0" width="1601" height="900">
<path d="M1599.93 0H-0.0695801V900H1599.93V0Z" fill="white"/>
</mask>
<g mask="url(#mask1_128_666)">
<path d="M1599.93 0H-0.0695801V900H1599.93V0Z" fill="#161616"/>
<path d="M1600.1 1520.61H-1103.19V0.000244141H1600.1V1520.61Z" fill="url(#paint0_linear_128_666)"/>
<path opacity="0.6" d="M-541.882 3269.39L-607.098 3057.92C-1016.57 1730.16 -283.068 288.302 1031.22 -162.554C2345.5 -613.411 3742.88 97.4604 4152.35 1425.22L4217.56 1636.69C4627.03 2964.45 3893.53 4406.31 2579.25 4857.16C1264.96 5308.02 -132.413 4597.15 -541.882 3269.39Z" fill="url(#paint1_linear_128_666)"/>
<path opacity="0.6" d="M3319.49 3634.03C2664.61 4513.67 1449.02 4659.73 604.402 3960.26C-240.218 3260.8 -394.033 1980.68 260.848 1101.04L290.964 1060.59C945.844 180.948 2161.43 34.8886 3006.05 734.355C3850.67 1433.82 4004.49 2713.94 3349.61 3593.58L3319.49 3634.03Z" fill="url(#paint2_linear_128_666)"/>
<path d="M3313.75 3037.38L3269.92 3141.64C2937.24 3933.06 2037.1 4279.84 1259.42 3916.19C481.742 3552.54 121.005 2616.17 453.695 1824.75L497.521 1720.5C830.211 929.079 1730.34 582.302 2508.02 945.95C3285.7 1309.6 3646.44 2245.96 3313.75 3037.38Z" fill="url(#paint3_linear_128_666)"/>
</g>
</g>
</g>
<defs>
<linearGradient id="paint0_linear_128_666" x1="-959.411" y1="1332.92" x2="3333.64" y2="300.05" gradientUnits="userSpaceOnUse">
<stop stop-color="#222222"/>
<stop offset="1" stop-color="#3E3E3E"/>
</linearGradient>
<linearGradient id="paint1_linear_128_666" x1="2869.42" y1="14.5309" x2="-112.106" y2="1222.15" gradientUnits="userSpaceOnUse">
<stop stop-color="#313131"/>
<stop offset="0.452455" stop-color="#333333"/>
<stop offset="1" stop-color="#222222"/>
</linearGradient>
<linearGradient id="paint2_linear_128_666" x1="3681.44" y1="554.343" x2="-38.5065" y2="2593.24" gradientUnits="userSpaceOnUse">
<stop stop-color="#222222"/>
<stop offset="0.104737" stop-color="#222222"/>
<stop offset="0.533834" stop-color="#3E3E3E"/>
</linearGradient>
<linearGradient id="paint3_linear_128_666" x1="3012.11" y1="554.341" x2="535.925" y2="2041.4" gradientUnits="userSpaceOnUse">
<stop offset="0.317105" stop-color="#414141"/>
<stop offset="0.726797" stop-color="#3A3A3A"/>
<stop offset="0.802083" stop-color="#5E5E5E"/>
<stop offset="0.963088" stop-color="#5E5E5E"/>
</linearGradient>
<clipPath id="clip0_128_666">
<rect width="1600" height="900" fill="white"/>
</clipPath>
</defs>
</svg>
